<?xml version="1.0" encoding="UTF-8"?>
<svg width="20px" height="20px" viewBox="0 0 20 20" version="1.1" xmlns="http://www.w3.org/2000/svg" xmlns:xlink="http://www.w3.org/1999/xlink">
    <!-- Generator: Sketch 51.2 (57519) - http://www.bohemiancoding.com/sketch -->
    <title>1,1</title>
    <desc>Created with Sketch.</desc>
    <defs></defs>
    <g id="forest-background" stroke="none" stroke-width="1" fill="none" fill-rule="evenodd">
        <g id="Artboard-3" transform="translate(-600.000000, -600.000000)">
            <g id="new-tile" transform="translate(600.000000, 600.000000)">
                <g id="1,1">
                    <path d="M8,0 L20,0 L20,20 L0,20 L0,8 C-5.41083001e-16,3.581722 3.581722,8.11624501e-16 8,0 Z" id="Rectangle-5" fill="#404040"></path>
                    <path d="M8.18850967,11.6096221 C13.7994493,11.6096221 9.88455086,6.39376264 9.88455086,5.44534377 C9.88455086,4.4969249 12.3967144,-0.603652443 6.78577477,2.20052792 C1.17483518,5.00470827 2.57757008,11.6096221 8.18850967,11.6096221 Z" id="Oval-3" fill="#75797B" transform="translate(7.213473, 6.488811) rotate(35.000000) translate(-7.213473, -6.488811) "></path>
                    <path d="M14.6596621,18.4266857 C17.7387514,18.4266857 17.7260135,16.3580976 17.7260135,13.8063648 C17.7260135,11.2546321 15.0171311,11.6062502 11.9380418,11.6062502 C8.85895244,11.6062502 9.08447769,11.2546321 9.08447769,13.8063648 C9.08447769,16.3580976 11.5805728,18.4266857 14.6596621,18.4266857 Z" id="Oval-3" fill="#5E6163" transform="translate(13.403405, 15.008262) rotate(-27.000000) translate(-13.403405, -15.008262) "></path>
                </g>
            </g>
        </g>
    </g>
</svg>