<?xml version="1.0" encoding="UTF-8"?>
<svg width="20px" height="20px" viewBox="0 0 20 20" version="1.1" xmlns="http://www.w3.org/2000/svg" xmlns:xlink="http://www.w3.org/1999/xlink">
    <!-- Generator: Sketch 51.2 (57519) - http://www.bohemiancoding.com/sketch -->
    <title>1,2</title>
    <desc>Created with Sketch.</desc>
    <defs></defs>
    <g id="forest-background" stroke="none" stroke-width="1" fill="none" fill-rule="evenodd">
        <g id="Artboard-3" transform="translate(-640.000000, -600.000000)">
            <g id="new-tile" transform="translate(600.000000, 600.000000)">
                <g id="1,2" transform="translate(39.000000, 0.000000)">
                    <rect id="Rectangle-2" fill="#404040" x="1" y="0" width="20" height="20"></rect>
                    <path d="M7.89907192,11.5449919 C10.9781613,11.5449919 10.9654234,9.47640379 10.9654234,6.92467104 C10.9654234,4.37293829 9.72374519,2.01558013 6.64465586,2.01558013 C3.56556653,2.01558013 2.32388751,4.37293829 2.32388751,6.92467104 C2.32388751,9.47640379 4.8199826,11.5449919 7.89907192,11.5449919 Z" id="Oval-3" fill="#5E6163" transform="translate(6.644656, 6.780286) rotate(-27.000000) translate(-6.644656, -6.780286) "></path>
                    <path d="M12.2913539,19 C15.3704433,19 15.3577054,16.9314119 15.3577054,14.3796791 C15.3577054,11.8279464 12.6488229,12.1795645 9.56973362,12.1795645 C6.49064429,12.1795645 6.71616953,11.8279464 6.71616953,14.3796791 C6.71616953,16.9314119 9.21226462,19 12.2913539,19 Z" id="Oval-3" fill="#5E6163" transform="translate(11.035097, 15.581576) rotate(-27.000000) translate(-11.035097, -15.581576) "></path>
                    <path d="M13.8000996,3.29986093 C14.1579158,1.97633152 17.7551336,2.55510594 19.1953896,4.27569418 C20.6356457,5.99628241 18.6227096,7.40280211 16.0302487,7.40280211 C13.4377878,7.40280211 13.4422834,4.62339035 13.8000996,3.29986093 Z" id="Path-3" fill="#676D70"></path>
                </g>
            </g>
        </g>
    </g>
</svg>