<?xml version="1.0" encoding="UTF-8"?>
<svg width="20px" height="20px" viewBox="0 0 20 20" version="1.1" xmlns="http://www.w3.org/2000/svg" xmlns:xlink="http://www.w3.org/1999/xlink">
    <!-- Generator: Sketch 51.2 (57519) - http://www.bohemiancoding.com/sketch -->
    <title>1,3</title>
    <desc>Created with Sketch.</desc>
    <defs></defs>
    <g id="forest-background" stroke="none" stroke-width="1" fill="none" fill-rule="evenodd">
        <g id="Artboard-3" transform="translate(-680.000000, -600.000000)">
            <g id="new-tile" transform="translate(600.000000, 600.000000)">
                <g id="1,3" transform="translate(90.000000, 10.500000) scale(-1, 1) translate(-90.000000, -10.500000) translate(80.000000, 0.000000)">
                    <path d="M8,0 L20,0 L20,20 L0,20 L0,8 C-5.41083001e-16,3.581722 3.581722,8.11624501e-16 8,0 Z" id="Rectangle-5" fill="#404040"></path>
                    <path d="M14.5760494,7.32069279 C16.0917097,7.32069279 17.3203952,6.23787203 17.3203952,4.90214492 C17.3203952,3.56641781 17.7833874,1.32069279 16.2677271,1.32069279 C14.7520668,1.32069279 10.3869863,3.56641781 10.3869863,4.90214492 C10.3869863,6.23787203 13.0603891,7.32069279 14.5760494,7.32069279 Z" id="Oval" fill="#818587" transform="translate(13.886986, 4.320693) rotate(29.000000) translate(-13.886986, -4.320693) "></path>
                    <path d="M10.9698246,18.0064771 C14.8875953,18.0064771 14.8713879,15.2833959 14.8713879,11.9243049 C14.8713879,8.56521401 11.4246609,9.02808272 7.5068901,9.02808272 C3.58911935,9.02808272 3.87607309,8.56521401 3.87607309,11.9243049 C3.87607309,15.2833959 7.05205381,18.0064771 10.9698246,18.0064771 Z" id="Oval-3" fill="#787B7D" transform="translate(9.371388, 13.506477) rotate(-27.000000) translate(-9.371388, -13.506477) "></path>
                </g>
            </g>
        </g>
    </g>
</svg>