<?xml version="1.0" encoding="UTF-8"?>
<svg width="20px" height="20px" viewBox="0 0 20 20" version="1.1" xmlns="http://www.w3.org/2000/svg" xmlns:xlink="http://www.w3.org/1999/xlink">
    <!-- Generator: Sketch 51.2 (57519) - http://www.bohemiancoding.com/sketch -->
    <title>3,3</title>
    <desc>Created with Sketch.</desc>
    <defs></defs>
    <g id="forest-background" stroke="none" stroke-width="1" fill="none" fill-rule="evenodd">
        <g id="Artboard-3" transform="translate(-680.000000, -680.000000)">
            <g id="new-tile" transform="translate(600.000000, 600.000000)">
                <g id="3,3" transform="translate(90.000000, 90.000000) scale(-1, -1) translate(-90.000000, -90.000000) translate(80.000000, 80.000000)">
                    <path d="M8,0 L20,0 L20,20 L0,20 L0,8 C-5.41083001e-16,3.581722 3.581722,8.11624501e-16 8,0 Z" id="Rectangle-5" fill="#404040"></path>
                    <path d="M5.12379796,19 C8.64714546,19 7.94247596,16.446106 7.94247596,15.8854404 C7.94247596,15.3247748 7.76630858,11.7800224 4.24296109,13.4377367 C0.719613599,15.0954509 1.60045047,19 5.12379796,19 Z" id="Oval-3" fill="#676D70"></path>
                    <path d="M15.5367369,16.5 C18.574303,16.5 18.5367369,13.5 17.5367369,10 C16.5367369,6.5 12.574303,3 9.53673685,3 C6.49917073,3 7.03673685,6.41014913 7.03673685,10 C7.03673685,13.5898509 12.4991707,16.5 15.5367369,16.5 Z" id="Path" fill="#676D70"></path>
                </g>
            </g>
        </g>
    </g>
</svg>